<svg width="50" height="50" viewBox="0 0 50 50" fill="none" xmlns="http://www.w3.org/2000/svg">
<g clip-path="url(#clip0)">
<path d="M7.29199 7.81234C7.29199 7.6742 7.34687 7.54173 7.44454 7.44405C7.54222 7.34638 7.67469 7.2915 7.81283 7.2915H35.9378C36.076 7.2915 36.2084 7.34638 36.3061 7.44405C36.4038 7.54173 36.4587 7.6742 36.4587 7.81234V28.6457C36.4587 29.0601 36.6233 29.4575 36.9163 29.7505C37.2093 30.0436 37.6068 30.2082 38.0212 30.2082C38.4356 30.2082 38.833 30.0436 39.126 29.7505C39.419 29.4575 39.5837 29.0601 39.5837 28.6457V7.81234C39.5837 6.8454 39.1995 5.91807 38.5158 5.23434C37.8321 4.55062 36.9048 4.1665 35.9378 4.1665H7.81283C6.84589 4.1665 5.91856 4.55062 5.23483 5.23434C4.55111 5.91807 4.16699 6.8454 4.16699 7.81234V42.1873C4.16699 44.1998 5.80033 45.8332 7.81283 45.8332H22.3962C22.8106 45.8332 23.208 45.6686 23.501 45.3755C23.794 45.0825 23.9587 44.6851 23.9587 44.2707C23.9587 43.8563 23.794 43.4588 23.501 43.1658C23.208 42.8728 22.8106 42.7082 22.3962 42.7082H7.81283C7.67469 42.7082 7.54222 42.6533 7.44454 42.5556C7.34687 42.458 7.29199 42.3255 7.29199 42.1873V7.81234Z" fill="#36A9E1" fill-opacity="0.6"/>
<path d="M13.333 14.4443H29.9997" stroke="#36A9E1" stroke-opacity="0.6" stroke-width="3" stroke-linecap="round" stroke-linejoin="round"/>
<path d="M13.333 21.1113H29.9997" stroke="#36A9E1" stroke-opacity="0.6" stroke-width="3" stroke-linecap="round" stroke-linejoin="round"/>
<path d="M13.333 27.7778H29.9997" stroke="#36A9E1" stroke-opacity="0.6" stroke-width="3" stroke-linecap="round" stroke-linejoin="round"/>
<path d="M35.5301 39.4999L39.4602 35.5698C40.0208 35.0092 40.0208 34.1002 39.4602 33.5396C38.8996 32.979 37.9907 32.979 37.43 33.5396L33.4999 37.4697L29.5698 33.5396C29.0092 32.979 28.1002 32.979 27.5396 33.5396C26.979 34.1002 26.979 35.0092 27.5396 35.5698L31.4697 39.4999L27.5396 43.43C26.979 43.9907 26.979 44.8996 27.5396 45.4602C27.8199 45.7405 28.1873 45.8807 28.5547 45.8807C28.9221 45.8807 29.2895 45.7405 29.5698 45.4602L33.4999 41.5301L37.43 45.4602C37.7103 45.7405 38.0777 45.8807 38.4451 45.8807C38.8125 45.8807 39.1799 45.7405 39.4602 45.4602C40.0208 44.8996 40.0208 43.9907 39.4602 43.43L35.5301 39.4999Z" fill="#36A9E1" fill-opacity="0.6"/>
</g>
<defs>
<clipPath id="clip0">
<rect width="50" height="50" fill="white"/>
</clipPath>
</defs>
</svg>
