<svg width="50" height="50" viewBox="0 0 50 50" fill="none" xmlns="http://www.w3.org/2000/svg">
<path d="M39.2072 40.3413H10.7949C9.5395 40.3413 8.52246 41.3584 8.52246 42.6137C8.52246 43.869 9.5395 44.8872 10.7949 44.8872H39.205C40.4614 44.8872 41.4785 43.869 41.4785 42.6137C41.4785 41.3584 40.4604 40.3413 39.2072 40.3413Z" fill="#36A9E1" fill-opacity="0.6"/>
<path d="M7.95508 23.2941V28.9762C7.95508 29.9177 8.71892 30.6815 9.65937 30.6815C10.6009 30.6815 11.3647 29.9177 11.3647 28.9762V23.2941C11.3647 22.3526 10.6009 21.5898 9.65937 21.5898C8.71786 21.5909 7.95508 22.3537 7.95508 23.2941Z" fill="#36A9E1" fill-opacity="0.6"/>
<path d="M13.6367 21.0227V28.9772C13.6367 29.9187 14.4006 30.6825 15.3421 30.6825C16.2825 30.6825 17.0464 29.9187 17.0464 28.9772V21.0227C17.0464 20.0812 16.2825 19.3174 15.3421 19.3174C14.4006 19.3174 13.6367 20.0812 13.6367 21.0227Z" fill="#36A9E1" fill-opacity="0.6"/>
<path d="M19.3184 18.7493V28.9761C19.3184 29.9176 20.0822 30.6815 21.0237 30.6815C21.9642 30.6815 22.728 29.9176 22.728 28.9761V18.7493C22.728 17.8078 21.9642 17.0439 21.0237 17.0439C20.0822 17.0439 19.3184 17.8078 19.3184 18.7493Z" fill="#36A9E1" fill-opacity="0.6"/>
<path d="M47.7276 5.11279H2.27345C1.01811 5.11279 0 6.1309 0 7.38625V35.7964C0 37.0518 1.01811 38.0699 2.27345 38.0699H45.6499C45.584 38.0114 45.5084 37.9635 45.4467 37.9029L42.3009 34.7549C40.487 35.7794 38.4327 36.3273 36.3274 36.3273C33.4571 36.3273 30.74 35.3379 28.5549 33.5262H4.54478V9.65757H45.4552V16.0641C47.4297 18.2929 48.5223 21.1227 48.5223 24.1292C48.5223 26.2345 47.9755 28.2878 46.9521 30.0995L50 33.1496V7.38518C50.0011 6.1309 48.983 5.11279 47.7276 5.11279Z" fill="#36A9E1" fill-opacity="0.6"/>
<path d="M45.0769 31.4412C44.8503 31.2135 44.546 31.121 44.2503 31.1529L43.7726 30.6752C45.3684 28.8624 46.2492 26.5677 46.2492 24.1314C46.2492 21.4825 45.2184 18.9909 43.346 17.1175C41.4704 15.2398 38.9799 14.21 36.3277 14.21C33.6798 14.21 31.1893 15.2408 29.3148 17.1175C27.4382 18.9909 26.4062 21.4825 26.4062 24.1314C26.4062 26.7804 27.4403 29.273 29.3148 31.1465C31.1893 33.0221 33.6798 34.0519 36.3277 34.0519C38.7672 34.0519 41.0608 33.1721 42.8715 31.5742L43.3513 32.0508C43.3194 32.3486 43.4109 32.6497 43.6396 32.8795L47.0578 36.2977C47.2567 36.4966 47.5163 36.5934 47.778 36.5934C48.0365 36.5934 48.2982 36.4955 48.4982 36.2977C48.894 35.8998 48.894 35.2562 48.4982 34.8604L45.0769 31.4412ZM41.9066 29.705C40.4172 31.1954 38.4352 32.0189 36.3277 32.0189C34.2234 32.0189 32.2425 31.1976 30.7532 29.7071C29.2648 28.2188 28.4425 26.2368 28.4425 24.1304C28.4425 22.025 29.2627 20.0441 30.7532 18.5547C32.2425 17.0643 34.2256 16.243 36.3277 16.243C38.4352 16.243 40.4172 17.0632 41.9066 18.5547C43.3938 20.0441 44.2151 22.025 44.2151 24.1304C44.2151 26.2368 43.3938 28.2156 41.9066 29.705Z" fill="#36A9E1" fill-opacity="0.6"/>
</svg>
