<svg width="1282" height="798" viewBox="0 0 1282 798" fill="none" xmlns="http://www.w3.org/2000/svg">
<g filter="url(#filter0_d)">
<path d="M21 7H1261.5V762.111C1261.5 762.914 1260.6 763.389 1259.94 762.937L777 434.5C777 434.5 701.97 504.599 642.5 506C580.255 507.466 500 434.5 500 434.5L22.565 761.428C21.9013 761.883 21 761.408 21 760.603V7Z" fill="url(#paint0_radial)"/>
<path d="M21 7V6.5C20.7239 6.5 20.5 6.72386 20.5 7H21ZM1261.5 7H1262C1262 6.72386 1261.78 6.5 1261.5 6.5V7ZM1259.94 762.937L1260.22 762.524L1259.94 762.937ZM777 434.5L776.669 434.125L776.664 434.13L776.659 434.135L777 434.5ZM642.5 506L642.488 505.5L642.5 506ZM500 434.5L500.336 434.13L500.333 434.127L500 434.5ZM22.565 761.428L22.2825 761.016H22.2825L22.565 761.428ZM21 7.5H1261.5V6.5H21V7.5ZM1261 7V762.111H1262V7H1261ZM1260.22 762.524L777.281 434.087L776.719 434.913L1259.66 763.351L1260.22 762.524ZM777 434.5C776.659 434.135 776.658 434.135 776.658 434.135C776.657 434.136 776.657 434.137 776.656 434.138C776.653 434.14 776.65 434.143 776.646 434.147C776.637 434.155 776.623 434.168 776.605 434.184C776.569 434.218 776.515 434.268 776.444 434.334C776.301 434.466 776.087 434.662 775.806 434.918C775.244 435.43 774.41 436.182 773.328 437.14C771.164 439.057 768.005 441.797 764.028 445.09C756.074 451.676 744.85 460.472 731.771 469.31C705.588 487.005 672.067 504.803 642.488 505.5L642.512 506.5C672.402 505.796 706.132 487.844 732.331 470.139C745.443 461.278 756.694 452.461 764.666 445.86C768.653 442.559 771.82 439.812 773.991 437.889C775.077 436.928 775.914 436.172 776.48 435.657C776.762 435.4 776.977 435.202 777.122 435.069C777.194 435.002 777.249 434.951 777.286 434.917C777.304 434.9 777.318 434.887 777.327 434.879C777.332 434.874 777.335 434.871 777.338 434.869C777.339 434.868 777.34 434.867 777.34 434.866C777.341 434.866 777.341 434.865 777 434.5ZM642.488 505.5C611.53 506.23 576.017 488.434 548.18 470.38C534.276 461.363 522.313 452.298 513.825 445.488C509.582 442.083 506.208 439.242 503.896 437.253C502.74 436.259 501.849 435.477 501.248 434.945C500.947 434.678 500.719 434.474 500.566 434.337C500.49 434.269 500.432 434.217 500.394 434.182C500.374 434.165 500.36 434.151 500.35 434.143C500.346 434.138 500.342 434.135 500.34 434.133C500.339 434.132 500.338 434.131 500.337 434.131C500.337 434.13 500.336 434.13 500 434.5C499.664 434.87 499.664 434.87 499.665 434.871C499.665 434.871 499.666 434.872 499.668 434.874C499.67 434.876 499.674 434.879 499.679 434.884C499.689 434.893 499.704 434.906 499.723 434.924C499.762 434.959 499.821 435.012 499.898 435.081C500.053 435.22 500.283 435.426 500.585 435.693C501.19 436.229 502.084 437.014 503.244 438.011C505.564 440.007 508.946 442.855 513.2 446.268C521.705 453.093 533.696 462.179 547.636 471.219C575.488 489.283 611.225 507.237 642.512 506.5L642.488 505.5ZM499.717 434.087L22.2825 761.016L22.8475 761.841L500.283 434.913L499.717 434.087ZM21.5 760.603V7H20.5V760.603H21.5ZM500.333 434.127L21.3329 6.62696L20.6671 7.37304L499.667 434.873L500.333 434.127ZM777.331 434.875L1261.83 7.37492L1261.17 6.62508L776.669 434.125L777.331 434.875ZM22.2825 761.016C21.9507 761.243 21.5 761.005 21.5 760.603H20.5C20.5 761.81 21.852 762.523 22.8475 761.841L22.2825 761.016ZM1261 762.111C1261 762.512 1260.55 762.75 1260.22 762.524L1259.66 763.351C1260.65 764.028 1262 763.315 1262 762.111H1261Z" fill="#D5DDDF"/>
</g>
<defs>
<filter id="filter0_d" x="0.5" y="0.5" width="1281.5" height="797.113" filterUnits="userSpaceOnUse" color-interpolation-filters="sRGB">
<feFlood flood-opacity="0" result="BackgroundImageFix"/>
<feColorMatrix in="SourceAlpha" type="matrix" values="0 0 0 0 0 0 0 0 0 0 0 0 0 0 0 0 0 0 127 0"/>
<feOffset dy="14"/>
<feGaussianBlur stdDeviation="10"/>
<feColorMatrix type="matrix" values="0 0 0 0 0.254902 0 0 0 0 0.290196 0 0 0 0 0.490196 0 0 0 0.2 0"/>
<feBlend mode="normal" in2="BackgroundImageFix" result="effect1_dropShadow"/>
<feBlend mode="normal" in="SourceGraphic" in2="effect1_dropShadow" result="shape"/>
</filter>
<radialGradient id="paint0_radial" cx="0" cy="0" r="1" gradientUnits="userSpaceOnUse" gradientTransform="translate(641 384) rotate(90) scale(526 1339.41)">
<stop stop-color="white"/>
<stop offset="1" stop-color="#F4F7FA"/>
</radialGradient>
</defs>
</svg>
