<svg width="28" height="28" viewBox="0 0 28 28" fill="none" xmlns="http://www.w3.org/2000/svg">
<path d="M0.982143 12.125H26.5179C26.7783 12.125 27.0282 12.0262 27.2123 11.8504C27.3965 11.6746 27.5 11.4361 27.5 11.1875V9.3125C27.5 9.06386 27.3965 8.8254 27.2123 8.64959C27.0282 8.47377 26.7783 8.375 26.5179 8.375H0.982143C0.721662 8.375 0.471851 8.47377 0.287663 8.64959C0.103475 8.8254 0 9.06386 0 9.3125L0 11.1875C0 11.4361 0.103475 11.6746 0.287663 11.8504C0.471851 12.0262 0.721662 12.125 0.982143 12.125ZM26.5179 23.375H0.982143C0.721662 23.375 0.471851 23.4738 0.287663 23.6496C0.103475 23.8254 0 24.0639 0 24.3125L0 26.1875C0 26.4361 0.103475 26.6746 0.287663 26.8504C0.471851 27.0262 0.721662 27.125 0.982143 27.125H26.5179C26.7783 27.125 27.0282 27.0262 27.2123 26.8504C27.3965 26.6746 27.5 26.4361 27.5 26.1875V24.3125C27.5 24.0639 27.3965 23.8254 27.2123 23.6496C27.0282 23.4738 26.7783 23.375 26.5179 23.375ZM26.7124 0.875H10.609C10.5055 0.874923 10.4031 0.894315 10.3075 0.932067C10.2119 0.969819 10.1251 1.02519 10.0519 1.09501C9.97877 1.16484 9.92076 1.24774 9.88121 1.33898C9.84166 1.43022 9.82135 1.52801 9.82143 1.62676V3.87324C9.82135 3.97199 9.84166 4.06978 9.88121 4.16102C9.92076 4.25226 9.97877 4.33516 10.0519 4.40499C10.1251 4.47481 10.2119 4.53018 10.3075 4.56793C10.4031 4.60569 10.5055 4.62508 10.609 4.625H26.7124C26.8159 4.62508 26.9183 4.60569 27.0139 4.56793C27.1095 4.53018 27.1964 4.47481 27.2695 4.40499C27.3427 4.33516 27.4007 4.25226 27.4402 4.16102C27.4798 4.06978 27.5001 3.97199 27.5 3.87324V1.62676C27.5001 1.52801 27.4798 1.43022 27.4402 1.33898C27.4007 1.24774 27.3427 1.16484 27.2695 1.09501C27.1964 1.02519 27.1095 0.969819 27.0139 0.932067C26.9183 0.894315 26.8159 0.874923 26.7124 0.875ZM26.7124 15.875H10.609C10.5055 15.8749 10.4031 15.8943 10.3075 15.9321C10.2119 15.9698 10.1251 16.0252 10.0519 16.095C9.97877 16.1648 9.92076 16.2477 9.88121 16.339C9.84166 16.4302 9.82135 16.528 9.82143 16.6268V18.8732C9.82135 18.972 9.84166 19.0698 9.88121 19.161C9.92076 19.2523 9.97877 19.3352 10.0519 19.405C10.1251 19.4748 10.2119 19.5302 10.3075 19.5679C10.4031 19.6057 10.5055 19.6251 10.609 19.625H26.7124C26.8159 19.6251 26.9183 19.6057 27.0139 19.5679C27.1095 19.5302 27.1964 19.4748 27.2695 19.405C27.3427 19.3352 27.4007 19.2523 27.4402 19.161C27.4798 19.0698 27.5001 18.972 27.5 18.8732V16.6268C27.5001 16.528 27.4798 16.4302 27.4402 16.339C27.4007 16.2477 27.3427 16.1648 27.2695 16.095C27.1964 16.0252 27.1095 15.9698 27.0139 15.9321C26.9183 15.8943 26.8159 15.8749 26.7124 15.875Z" fill="#465EA8"/>
</svg>
