<svg width="50" height="50" viewBox="0 0 50 50" fill="none" xmlns="http://www.w3.org/2000/svg">
<path d="M49.9902 12.3314C49.9318 11.7936 49.5977 11.3177 49.0981 11.0845L25.6606 0.147046C25.2418 -0.0483643 24.758 -0.0483643 24.3392 0.147046L0.90166 11.0845C0.402246 11.3177 0.0680664 11.7935 0.00957031 12.3314C0.00830078 12.3427 0 12.4923 0 12.5005V39.063C0 39.7018 0.388965 40.2764 0.982227 40.5137L24.4197 49.8887C24.606 49.9632 24.803 50.0005 25 50.0005C25.197 50.0005 25.394 49.9633 25.5803 49.8887L49.0178 40.5137C49.611 40.2764 50 39.7018 50 39.063V12.5005C50 12.4923 49.9915 12.3426 49.9902 12.3314ZM25 3.28718L44.5062 12.3901L36.9951 15.3946L17.1218 6.96375L25 3.28718ZM13.3115 8.74187L32.8766 17.042L25 20.1926L5.49375 12.3901L13.3115 8.74187ZM3.125 14.8083L23.4375 22.9333V46.1301L3.125 38.0051V14.8083ZM26.5625 46.1302V22.9333L46.875 14.8083V38.0051L26.5625 46.1302Z" fill="#36A9E1" fill-opacity="0.6"/>
</svg>
