<svg width="45" height="45" viewBox="0 0 45 45" fill="none" xmlns="http://www.w3.org/2000/svg">
<g clip-path="url(#clip0)">
<path d="M43.6816 29.0918C42.9536 29.0918 42.3633 29.6821 42.3633 30.4102V32.5174L20.7041 11.0174C20.1888 10.5058 19.3566 10.5073 18.8431 11.0209C17.9387 11.9253 12.4228 17.4411 11.8651 17.9988L2.63663 8.77025V1.31836C2.63663 0.590273 2.04636 0 1.31827 0C0.590185 0 0 0.590273 0 1.31836V43.6816C0 44.4097 0.590273 45 1.31836 45H43.6816C44.4097 45 45 44.4097 45 43.6816C45 42.9536 44.4097 42.3633 43.6816 42.3633H34.2773V28.206L40.4822 34.3652H38.4082C37.6801 34.3652 37.0898 34.9555 37.0898 35.6836C37.0898 36.4117 37.6801 37.002 38.4082 37.002H43.6816C44.4097 37.002 45 36.4117 45 35.6836V30.4102C45 29.6821 44.4097 29.0918 43.6816 29.0918ZM5.27344 42.3633H2.63672V12.4992L5.27344 15.1359V42.3633ZM10.5469 42.3633H7.91016V17.7726L10.5469 20.4093V42.3633ZM15.8203 42.3633H13.1836V20.4093L15.8203 17.7726V42.3633ZM21.0938 42.3633H18.457V15.1359L19.7788 13.8141L21.0938 15.1194V42.3633ZM26.3672 42.3633H23.7305V17.7368L26.3672 20.3541V42.3633ZM31.6406 42.3633H29.0039V22.9714L31.6406 25.5887V42.3633Z" fill="#36A9E1" fill-opacity="0.6"/>
</g>
<defs>
<clipPath id="clip0">
<rect width="45" height="45" fill="white"/>
</clipPath>
</defs>
</svg>
