<svg width="50" height="50" viewBox="0 0 50 50" fill="none" xmlns="http://www.w3.org/2000/svg">
<path d="M48.0234 13.1607C48.0234 13.1606 48.0233 13.1606 48.0234 13.1607L46.6422 11.7795C45.3096 10.4469 43.1412 10.4468 41.8085 11.7795L39.0635 14.5245V1.46484C39.0635 0.655859 38.4076 0 37.5986 0H2.44238C1.6334 0 0.977539 0.655859 0.977539 1.46484V48.5352C0.977539 49.3441 1.6334 50 2.44238 50H37.5986C38.4076 50 39.0635 49.3441 39.0635 48.5352V26.9541L45.2611 20.7564L48.0234 17.9942C49.3559 16.6616 49.3559 14.4933 48.0234 13.1607ZM27.6525 34.2218L25.581 32.1503L35.939 21.7922L38.0105 23.8638L27.6525 34.2218ZM23.9683 34.6807L25.1221 35.8345L23.0066 36.796L23.9683 34.6807ZM36.1338 47.0703H3.90723V2.92969H36.1338V17.4542L22.4735 31.1145C22.3493 31.2386 22.2484 31.3842 22.1758 31.544L21.7769 32.4219H8.30176C7.49277 32.4219 6.83691 33.0777 6.83691 33.8867C6.83691 34.6957 7.49277 35.3516 8.30176 35.3516H20.4451L19.1134 38.2812H8.30176C7.49277 38.2812 6.83691 38.9371 6.83691 39.7461C6.83691 40.5551 7.49277 41.2109 8.30176 41.2109H20.0566H20.057C20.2618 41.2109 20.4684 41.1681 20.6628 41.0796L28.2587 37.627C28.4186 37.5543 28.5642 37.4535 28.6883 37.3292L36.1337 29.8838V47.0703H36.1338ZM40.0822 21.7922L38.0105 19.7206L40.0822 17.6489L42.1538 19.7206L40.0822 21.7922ZM45.9518 15.9228L44.2253 17.6491L42.1537 15.5774L43.8801 13.8511C44.0705 13.6606 44.3804 13.6608 44.5706 13.8511L45.9518 15.2322C46.1422 15.4227 46.1421 15.7324 45.9518 15.9228Z" fill="#36A9E1" fill-opacity="0.6"/>
</svg>
