<svg width="28" height="30" viewBox="0 0 28 30" fill="none" xmlns="http://www.w3.org/2000/svg">
<g clip-path="url(#clip0)">
<path d="M27 24.375H1C0.734784 24.375 0.48043 24.4738 0.292893 24.6496C0.105357 24.8254 0 25.0639 0 25.3125L0 27.1875C0 27.4361 0.105357 27.6746 0.292893 27.8504C0.48043 28.0262 0.734784 28.125 1 28.125H27C27.2652 28.125 27.5196 28.0262 27.7071 27.8504C27.8946 27.6746 28 27.4361 28 27.1875V25.3125C28 25.0639 27.8946 24.8254 27.7071 24.6496C27.5196 24.4738 27.2652 24.375 27 24.375ZM27 16.875H1C0.734784 16.875 0.48043 16.9738 0.292893 17.1496C0.105357 17.3254 0 17.5639 0 17.8125L0 19.6875C0 19.9361 0.105357 20.1746 0.292893 20.3504C0.48043 20.5262 0.734784 20.625 1 20.625H27C27.2652 20.625 27.5196 20.5262 27.7071 20.3504C27.8946 20.1746 28 19.9361 28 19.6875V17.8125C28 17.5639 27.8946 17.3254 27.7071 17.1496C27.5196 16.9738 27.2652 16.875 27 16.875ZM27 9.375H1C0.734784 9.375 0.48043 9.47377 0.292893 9.64959C0.105357 9.8254 0 10.0639 0 10.3125L0 12.1875C0 12.4361 0.105357 12.6746 0.292893 12.8504C0.48043 13.0262 0.734784 13.125 1 13.125H27C27.2652 13.125 27.5196 13.0262 27.7071 12.8504C27.8946 12.6746 28 12.4361 28 12.1875V10.3125C28 10.0639 27.8946 9.8254 27.7071 9.64959C27.5196 9.47377 27.2652 9.375 27 9.375ZM27 1.875H1C0.734784 1.875 0.48043 1.97377 0.292893 2.14959C0.105357 2.3254 0 2.56386 0 2.8125L0 4.6875C0 4.93614 0.105357 5.1746 0.292893 5.35041C0.48043 5.52623 0.734784 5.625 1 5.625H27C27.2652 5.625 27.5196 5.52623 27.7071 5.35041C27.8946 5.1746 28 4.93614 28 4.6875V2.8125C28 2.56386 27.8946 2.3254 27.7071 2.14959C27.5196 1.97377 27.2652 1.875 27 1.875Z" fill="#465EA8"/>
</g>
<defs>
<clipPath id="clip0">
<rect width="28" height="30" fill="white"/>
</clipPath>
</defs>
</svg>
