<svg width="288" height="8" viewBox="0 0 288 8" fill="none" xmlns="http://www.w3.org/2000/svg">
<path opacity="0.9" d="M0 4C0 1.79086 1.79086 0 4 0H284C286.209 0 288 1.79086 288 4V4C288 6.20914 286.209 8 284 8H4C1.79086 8 0 6.20914 0 4V4Z" fill="#36A9E1"/>
<rect x="146" y="1" width="2" height="6" rx="1" fill="white" fill-opacity="0.5"/>
<rect x="181" y="1" width="2" height="6" rx="1" fill="white" fill-opacity="0.5"/>
<rect x="166" y="1" width="2" height="6" rx="1" fill="white" fill-opacity="0.5"/>
<rect x="206" y="1" width="2" height="6" rx="1" fill="white" fill-opacity="0.5"/>
<rect x="151" y="1" width="2" height="6" rx="1" fill="white" fill-opacity="0.5"/>
<rect x="191" y="1" width="2" height="6" rx="1" fill="white" fill-opacity="0.5"/>
<rect x="171" y="1" width="2" height="6" rx="1" fill="white" fill-opacity="0.5"/>
<rect x="211" y="1" width="2" height="6" rx="1" fill="white" fill-opacity="0.5"/>
<rect x="156" y="1" width="2" height="6" rx="1" fill="white" fill-opacity="0.5"/>
<rect x="196" y="1" width="2" height="6" rx="1" fill="white" fill-opacity="0.5"/>
<rect x="186" y="1" width="2" height="6" rx="1" fill="white" fill-opacity="0.5"/>
<rect x="216" y="1" width="2" height="6" rx="1" fill="white" fill-opacity="0.5"/>
<rect x="161" y="1" width="2" height="6" rx="1" fill="white" fill-opacity="0.5"/>
<rect x="201" y="1" width="2" height="6" rx="1" fill="white" fill-opacity="0.5"/>
<rect x="176" y="1" width="2" height="6" rx="1" fill="white" fill-opacity="0.5"/>
<rect x="221" y="1" width="2" height="6" rx="1" fill="white" fill-opacity="0.5"/>
<rect x="66" y="1" width="2" height="6" rx="1" fill="white" fill-opacity="0.5"/>
<rect x="101" y="1" width="2" height="6" rx="1" fill="white" fill-opacity="0.5"/>
<rect x="86" y="1" width="2" height="6" rx="1" fill="white" fill-opacity="0.5"/>
<rect x="126" y="1" width="2" height="6" rx="1" fill="white" fill-opacity="0.5"/>
<rect x="71" y="1" width="2" height="6" rx="1" fill="white" fill-opacity="0.5"/>
<rect x="111" y="1" width="2" height="6" rx="1" fill="white" fill-opacity="0.5"/>
<rect x="91" y="1" width="2" height="6" rx="1" fill="white" fill-opacity="0.5"/>
<rect x="131" y="1" width="2" height="6" rx="1" fill="white" fill-opacity="0.5"/>
<rect x="76" y="1" width="2" height="6" rx="1" fill="white" fill-opacity="0.5"/>
<rect x="116" y="1" width="2" height="6" rx="1" fill="white" fill-opacity="0.5"/>
<rect x="106" y="1" width="2" height="6" rx="1" fill="white" fill-opacity="0.5"/>
<rect x="136" y="1" width="2" height="6" rx="1" fill="white" fill-opacity="0.5"/>
<rect x="81" y="1" width="2" height="6" rx="1" fill="white" fill-opacity="0.5"/>
<rect x="121" y="1" width="2" height="6" rx="1" fill="white" fill-opacity="0.5"/>
<rect x="96" y="1" width="2" height="6" rx="1" fill="white" fill-opacity="0.5"/>
<rect x="141" y="1" width="2" height="6" rx="1" fill="white" fill-opacity="0.5"/>
</svg>
